<?xml version="1.0" encoding="UTF-8"?>
<svg version="1.1" xmlns="http://www.w3.org/2000/svg" width="500" height="500">
<path d="M0 0 C3.24599698 0.6483936 6.25279629 0.66973188 9.56355286 0.66358948 C10.22752579 0.6637355 10.89149872 0.66388153 11.57559204 0.66403198 C13.7561019 0.66333892 15.93652484 0.65557508 18.11701965 0.64772034 C19.6344498 0.645854 21.15188056 0.64443112 22.66931152 0.64343262 C26.65265075 0.63962441 30.6359532 0.62980868 34.61927795 0.61872864 C38.68818159 0.60847798 42.75709119 0.60392718 46.82600403 0.59889221 C54.80193231 0.58818483 62.77783078 0.57112886 70.7537384 0.55006409 C69.32473352 3.40807385 67.18479868 3.7832492 64.29670715 4.81959534 C59.53751529 6.18667503 54.6493159 6.85652394 49.7537384 7.55006409 C49.67897278 8.10693909 49.60420715 8.66381409 49.5271759 9.23756409 C48.56968945 14.79474036 46.86268835 18.11621367 43.3396759 22.46412659 C32.95401241 36.12408794 31.16430745 55.09286508 32.9881134 71.68190002 C36.09089485 93.73818522 46.85010194 108.93620633 64.44514465 122.22584534 C66.16547606 123.50207796 67.76642868 124.55614107 69.70159912 125.48283386 C72.98410979 127.13160373 75.21895678 128.52295688 76.94442749 131.83691406 C77.89506149 134.73155161 78.63301788 137.61597799 79.3162384 140.58522034 C79.59442413 141.68074722 79.87260986 142.77627411 80.15922546 143.90499878 C81.05508931 147.46729139 81.9049967 151.03877977 82.7537384 154.61256409 C83.35834854 157.05861483 83.96529326 159.50408966 84.57453918 161.94898987 C89.30360592 181.0696491 93.71941054 200.27066885 97.7537384 219.55006409 C99.46655171 216.4313914 100.39486372 213.43950371 101.23420715 209.98707581 C101.50789124 208.8726712 101.78157532 207.7582666 102.06355286 206.61009216 C102.35318909 205.41207977 102.64282532 204.21406738 102.9412384 202.97975159 C103.56352563 200.44977695 104.18592484 197.91982986 104.8084259 195.38990784 C105.78604238 191.39641507 106.75946417 187.40190608 107.73127747 183.40699768 C108.66901015 179.55445664 109.61781655 175.70467516 110.5662384 171.85475159 C110.85587463 170.65269073 111.14551086 169.45062988 111.44392395 168.21214294 C111.71760803 167.10404266 111.99129211 165.99594238 112.27326965 164.85426331 C112.51150452 163.87593536 112.74973938 162.89760742 112.99519348 161.88963318 C113.7537384 159.55006409 113.7537384 159.55006409 115.7537384 157.55006409 C117.7537384 159.55006409 117.7537384 159.55006409 117.79560947 161.4264822 C117.09835485 166.61291608 116.1638859 171.65541364 114.89607239 176.73194885 C114.71060852 177.4940416 114.52514465 178.25613434 114.33406067 179.0413208 C113.72798588 181.52604419 113.11399369 184.00873467 112.49983215 186.49147034 C112.07478328 188.22726573 111.65023568 189.96318393 111.22616577 191.69921875 C110.11489893 196.24267556 108.99687901 200.78444372 107.87739563 205.32588196 C106.73374833 209.97056305 105.59656312 214.61682538 104.45881653 219.26295471 C102.23007577 228.36020793 99.99419029 237.45568853 97.7537384 246.55006409 C95.39805853 246.59437155 93.04323256 246.62637935 90.68733215 246.65162659 C88.71977966 246.6799054 88.71977966 246.6799054 86.71247864 246.70875549 C76.14840234 246.28528034 67.3203105 242.4612335 60.1131134 234.80787659 C48.09927706 220.18497477 45.83626475 198.79759572 46.7537384 180.55006409 C49.7103836 179.07174149 52.49603577 179.48973626 55.7537384 179.55006409 C55.81319641 180.41619324 55.81319641 180.41619324 55.87385559 181.29981995 C57.15693962 199.19387989 58.6320572 217.16763382 68.7537384 232.55006409 C70.39425054 233.91544883 72.05813317 235.2537314 73.7537384 236.55006409 C73.60277206 236.00439789 73.45180573 235.45873169 73.29626465 234.89653015 C71.65294571 228.95450573 70.01378683 223.01134281 68.37654114 217.06764221 C67.77366336 214.88085296 67.16989044 212.69431018 66.5650177 210.5080719 C62.41951421 195.52128968 58.4160638 180.50231833 54.49201965 165.45631409 C49.10503585 144.80358251 43.56603796 124.19396777 37.97767639 103.59492493 C37.01136313 100.03119161 36.04694781 96.46694583 35.08250427 92.90270615 C32.70033511 84.09936689 30.31099262 75.29801427 27.91416931 66.49865341 C26.42909924 61.04333883 24.95383193 55.5854662 23.48453522 50.1258831 C22.49388599 46.45002278 21.49724551 42.77580349 20.49935913 39.10190201 C20.02970466 37.36772816 19.56253875 35.63287809 19.0980835 33.89730453 C16.06598649 19.45491281 16.06598649 19.45491281 8.46076965 7.53053284 C5.06455617 6.30044686 2.0463998 6.03102957 -1.5587616 5.86256409 C-2.81301941 5.7968219 -4.06727722 5.73107971 -5.35954285 5.66334534 C-6.31216003 5.62596252 -7.26477722 5.58857971 -8.2462616 5.55006409 C-7.8868866 3.63209534 -7.8868866 3.63209534 -7.2462616 1.55006409 C-4.59560955 0.00385039 -3.03975812 -0.6088767 0 0 Z " fill="#FEFEFE" transform="translate(152.2462615966797,108.44993591308594)"/>
<path d="M0 0 C2.08301165 -0.05546481 4.16648918 -0.09343165 6.25 -0.125 C7.99023438 -0.15980469 7.99023438 -0.15980469 9.765625 -0.1953125 C13.06898177 -0.14310225 16.14225607 0.36513156 19.38476562 0.98632812 C26.29613491 2.16354657 33.07927232 2.34826073 40.078125 2.4140625 C42.01700592 2.44311172 42.01700592 2.44311172 43.99505615 2.4727478 C47.38801255 2.52348155 50.78100803 2.56341633 54.1741333 2.60089111 C57.65394279 2.64130524 61.13359809 2.69222429 64.61328125 2.7421875 C71.40874074 2.83824817 78.20429992 2.92287 85 3 C85 4.65 85 6.3 85 8 C83.37191406 8.05607422 83.37191406 8.05607422 81.7109375 8.11328125 C80.26559261 8.17897875 78.82028161 8.24542476 77.375 8.3125 C76.66214844 8.33505859 75.94929688 8.35761719 75.21484375 8.38085938 C70.50406696 8.61855912 67.05000943 9.36236346 63 12 C61.51080084 13.87053661 61.51080084 13.87053661 60.6875 16 C60.38199219 16.680625 60.07648438 17.36125 59.76171875 18.0625 C57.85410714 22.91468132 57.19467571 27.823801 58.48828125 32.92578125 C60.14496304 39.64103338 59.56155074 46.15227164 56.36328125 52.24609375 C55 54 55 54 52.53491211 55.72412109 C49.45054209 58.49331086 48.99973804 60.15860512 48.078125 64.16796875 C47.9247467 64.80639206 47.77136841 65.44481537 47.61334229 66.10258484 C47.26246962 67.56581359 46.91948382 69.03094734 46.58276367 70.49749756 C45.93783546 73.26694683 45.2543399 76.02510216 44.56445312 78.78369141 C43.21755617 84.1709102 41.8905319 89.56273496 40.57128906 94.95678711 C39.74046693 98.35145125 38.90549379 101.7450779 38.0703125 105.13867188 C37.54141754 107.29681396 37.01276261 109.45501489 36.484375 111.61328125 C36.23443787 112.62771805 35.98450073 113.64215485 35.72698975 114.68733215 C35.49965149 115.61978256 35.27231323 116.55223297 35.03808594 117.51293945 C34.7364151 118.74413261 34.7364151 118.74413261 34.4286499 120.00019836 C33.93013812 121.98505918 33.93013812 121.98505918 34 124 C35.95097695 125.54087979 37.91702507 126.99334904 39.9375 128.4375 C53.24286575 138.36987854 61.44313292 151.38596845 64.53125 167.80078125 C67.45111506 189.99286174 64.86856279 212.79751133 51 231 C40.9568585 243.86671832 26.93287013 249.97735486 10.99121094 252.04711914 C2.71946872 253 2.71946872 253 -1 253 C-1 252.34 -1 251.68 -1 251 C0.13695312 250.79246094 1.27390625 250.58492187 2.4453125 250.37109375 C19.70662958 247.01535249 34.5052154 240.87529144 44.8125 225.8125 C56.01795181 206.86365815 57.66132772 183.67751825 52.90625 162.484375 C48.93407752 147.21205669 39.29986909 135.30576958 26.5 126.4375 C25.78368408 125.93573242 25.06736816 125.43396484 24.3293457 124.91699219 C16.20448768 119.31435254 7.73227714 114.28089879 -0.71875 109.19140625 C-17.81991402 98.88554631 -33.75427552 88.0132642 -40.1875 68.375 C-43.65059671 52.55707178 -43.0543955 33.00926853 -34.6875 18.765625 C-29.65721625 11.49358436 -22.66494127 6.07470425 -14 4 C-3.97797357 2.34801762 -3.97797357 2.34801762 0 5 C-0.7734375 5.14695312 -1.546875 5.29390625 -2.34375 5.4453125 C-12.26643409 7.58212813 -18.78175372 11.30614491 -24.68359375 19.65234375 C-32.95032764 34.3950947 -33.50693898 55.18866075 -29.04296875 71.2421875 C-27.27339427 75.92128707 -24.90827176 79.94429596 -22 84 C-21.59394531 84.60070312 -21.18789062 85.20140625 -20.76953125 85.8203125 C-13.55327396 95.36797599 -1.28720096 101.60280809 8.88842773 107.55810547 C13.13059229 110.05980812 17.30647035 112.66166912 21.4765625 115.28125 C22.20528564 115.73790039 22.93400879 116.19455078 23.68481445 116.66503906 C25.45709883 117.7758063 27.22862983 118.88777543 29 120 C29.14367508 119.41055099 29.28735016 118.82110199 29.43537903 118.21379089 C30.94251421 112.03181897 32.45174919 105.8503623 33.9621582 99.66918945 C34.52421124 97.36788644 35.08574391 95.06645627 35.64672852 92.76489258 C36.45709846 89.44057499 37.26939133 86.11673207 38.08203125 82.79296875 C38.45253349 81.27040718 38.45253349 81.27040718 38.83052063 79.71708679 C40.44743428 73.11405338 42.17922397 66.54972554 44 60 C41.36 60 38.72 60 36 60 C37.51934706 56.96130589 39.98004772 56.35589694 43 55 C43.66 55 44.32 55 45 55 C45.68346682 53.34015202 46.34588315 51.67163195 47 50 C47.37125 49.05125 47.7425 48.1025 48.125 47.125 C50.39594919 39.01446716 48.31820052 31.52872506 44.5703125 24.20703125 C41.55256577 18.9184308 41.55256577 18.9184308 37 15 C37 14.34 37 13.68 37 13 C36.45085937 12.73058594 35.90171875 12.46117188 35.3359375 12.18359375 C33.69918612 11.35426989 32.08040681 10.48895673 30.4765625 9.59765625 C20.68225147 4.32482853 10.92703233 2.50956467 0 1 C0 0.67 0 0.34 0 0 Z M40 8 C43.80411834 11.91939465 47.81576108 15.49102731 52 19 C52.21079572 15.90832951 52.23506168 13.57981882 51.0625 10.6875 C47.80029141 8.01842025 44.10485124 8.17211116 40 8 Z " fill="#FDFDFD" transform="translate(247,106)"/>
<path d="M0 0 C2.09715785 3.14573677 2.52004559 5.01456251 3.125 8.6875 C3.29257813 9.68136719 3.46015625 10.67523438 3.6328125 11.69921875 C3.75398437 12.45847656 3.87515625 13.21773437 4 14 C3.34 14 2.68 14 2 14 C1.46658816 12.42085985 0.94874237 10.83645613 0.4375 9.25 C0.14746094 8.36828125 -0.14257812 7.4865625 -0.44140625 6.578125 C-1.01697435 3.92165684 -0.89248371 2.52968894 0 0 Z " fill="#F5F5F5" transform="translate(184,182)"/>
<path d="M0 0 C0.33 0.66 0.66 1.32 1 2 C0.01 2 -0.98 2 -2 2 C-1.67 3.32 -1.34 4.64 -1 6 C-2.65 6 -4.3 6 -6 6 C-5.8125 4.125 -5.8125 4.125 -5 2 C-2.4375 0.75 -2.4375 0.75 0 0 Z " fill="#595B54" transform="translate(150,108)"/>
</svg>
